<?xml version="1.0" encoding="utf-8"?>
<!-- Generator: Adobe Illustrator 17.0.2, SVG Export Plug-In . SVG Version: 6.00 Build 0)  -->
<!DOCTYPE svg PUBLIC "-//W3C//DTD SVG 1.1//EN" "http://www.w3.org/Graphics/SVG/1.1/DTD/svg11.dtd">
<svg version="1.1" id="Layer_1" xmlns="http://www.w3.org/2000/svg" xmlns:xlink="http://www.w3.org/1999/xlink" x="0px" y="0px"
	 width="612px" height="792px" viewBox="0 0 612 792" enable-background="new 0 0 612 792" xml:space="preserve">
<polygon fill="none" stroke="#000000" stroke-miterlimit="10" points="0,0 9,0 72,72 54,72 54,90 36,72 36,108 54,126 81,135 
	117,126 144,108 180,45 171,18 207,36 243,72 288,135 333,297 297,252 279,234 252,225 243,243 216,216 189,207 171,207 162,225 
	135,207 108,198 72,216 54,243 36,306 27,378 36,432 18,423 36,468 18,459 27,504 18,495 18,522 0,576 "/>
</svg>
