<?xml version="1.0" encoding="utf-8"?>
<!-- Generator: Adobe Illustrator 17.0.2, SVG Export Plug-In . SVG Version: 6.00 Build 0)  -->
<!DOCTYPE svg PUBLIC "-//W3C//DTD SVG 1.1//EN" "http://www.w3.org/Graphics/SVG/1.1/DTD/svg11.dtd">
<svg version="1.1" id="Layer_1" xmlns="http://www.w3.org/2000/svg" xmlns:xlink="http://www.w3.org/1999/xlink" x="0px" y="0px"
	 width="612px" height="792px" viewBox="0 0 612 792" enable-background="new 0 0 612 792" xml:space="preserve">
<polygon fill="none" stroke="#000000" stroke-miterlimit="10" points="0,0 18.5,9.5 45.5,45.5 72.5,63.5 63.5,81.5 27.5,72.5 
	36,108 54,126 81,135 117,126 144,108 171.5,72.5 180,45 171,18 198.5,27.5 234.5,54.5 261.5,90.5 288.5,135.5 306.5,180.5 
	324.5,234.5 333,297 306.5,252.5 279,234 252,225 243,243 216,216 189,207 171,207 162,225 135,207 108,198 72,216 54,243 36,306 
	27.5,360.5 18.5,414.5 18.5,468.5 9.5,522.5 0,576 "/>
</svg>
